<?xml version="1.0" encoding="utf-8"?>
<!-- Generator: Adobe Illustrator 21.0.0, SVG Export Plug-In . SVG Version: 6.00 Build 0)  -->
<!DOCTYPE svg PUBLIC "-//W3C//DTD SVG 1.1//EN" "http://www.w3.org/Graphics/SVG/1.1/DTD/svg11.dtd">
<svg version="1.1" id="Layer_1" xmlns="http://www.w3.org/2000/svg" xmlns:xlink="http://www.w3.org/1999/xlink" x="0px" y="0px"
	 viewBox="0 0 149.1 162.1" style="enable-background:new 0 0 149.1 162.1;" xml:space="preserve">
<style type="text/css">
	.st0{fill:#FFFFFF;}
</style>
<g>
	<path class="st0" d="M91.5,36.1c0,0-33.1-52.2-70.1-31.1c-45.8,26-3.8,107.6-3.8,107.6S0.9,51.9,38.8,35.2
		C63.4,24.4,91.5,36.1,91.5,36.1z"/>
	<path class="st0" d="M69.1,2.3c0,0,90.2,18.7,79.1,74.2c-8.1,40.4-53.2,45.1-53.2,45.1s36.1-32.4,13.2-75.4
		C93.7,18.9,69.1,2.3,69.1,2.3z"/>
	<path class="st0" d="M138.4,112.7c0,0-47.7,72.6-87.5,41.8c-31.1-24-29.9-71-29.9-71s21.4,45.3,62.5,47.6
		C113,132.8,138.4,112.7,138.4,112.7z"/>
	<path class="st0" d="M44.7,103.3c0,0-39.4-39.2-4-59.3c24.4-13.9,57.9,2.5,57.9,2.5S59,46,48,70.7C40.8,86.9,44.7,103.3,44.7,103.3
		z"/>
	<path class="st0" d="M62.1,63.5c0,0,43.6-25.3,44.9,8.6c1.1,28.9-24,49.8-24,49.8s21.6-28.2,7-46.1C80.8,64.5,62.1,63.5,62.1,63.5z
		"/>
	<path class="st0" d="M85.2,100c0,0-5.1,27.2-24.5,15.4c-15.9-9.7-8.1-37.8-8.1-37.8s0.9,23.5,16.3,28.5
		C76.8,108.6,85.2,100,85.2,100z"/>
	<path class="st0" d="M70.1,99.2c0,0,14.6-1.7,11.7-14.6c-3-13.3-24.7-12.2-24.7-12.2s14.9,5,16.8,15.8C75,94.6,70.1,99.2,70.1,99.2
		z"/>
</g>
</svg>
