<?xml version="1.0" encoding="UTF-8" standalone="no"?>
<!-- Generator: Adobe Illustrator 27.1.1, SVG Export Plug-In . SVG Version: 6.00 Build 0)  -->
<svg width="55" height="53" viewBox="0 0 55 53" fill="none" xmlns="http://www.w3.org/2000/svg">
<g clip-path="url(#clip0_4_18)">
<path d="M33.9391 8.00005C34.5391 8.50005 35.0391 9.00005 35.6391 9.50005C36.8391 10.5 38.1391 11.3 39.5391 12C40.7391 12.5 41.9391 12.9 43.2391 13.1C43.4391 13.1 43.7391 13.2 43.9391 13.2C44.3391 13.2 44.7391 13.3 45.1391 13.3C45.5391 13.3 45.9391 13.3 46.2391 13.3C46.5391 13.3 46.8391 13.2 47.1391 13.2C49.7391 12.8 52.3391 11.5 54.0391 9.50005C53.9391 9.50005 53.8391 9.50005 53.7391 9.50005C53.2391 9.40005 52.7391 9.30005 52.2391 9.10005C51.7391 8.90005 51.3391 8.70005 50.9391 8.40005C50.1391 7.90005 49.5391 7.30005 48.8391 6.60005C48.5391 6.20005 48.1391 5.90005 47.8391 5.50005C47.7391 5.40005 47.7391 5.40005 47.6391 5.30005C47.2391 4.80005 46.7391 4.30005 46.2391 3.80005C44.8391 2.40005 43.1391 1.20005 41.1391 0.600049C40.8391 0.500049 40.5391 0.400049 40.2391 0.400049C39.8391 0.300049 39.5391 0.300049 39.1391 0.300049C38.7391 0.300049 38.3391 0.300049 37.9391 0.300049C37.7391 0.300049 37.4391 0.300049 37.2391 0.400049C36.0391 0.600049 34.8391 1.00005 33.7391 1.60005C31.7391 2.70005 29.9391 4.20005 28.3391 5.80005C28.3391 5.80005 28.3391 5.80005 28.4391 5.80005C28.5391 5.80005 28.6391 5.80005 28.6391 5.80005C28.6391 5.80005 28.6391 5.80005 28.9391 5.80005C30.1391 5.90005 31.0391 6.30005 31.8391 6.70005C32.6391 7.10005 33.2391 7.60005 33.6391 7.90005C33.8391 7.90005 33.8391 7.90005 33.9391 8.00005Z" fill="#3A9144"/>
<path d="M47.1392 14.0999C46.9392 14.0999 46.6392 14.1999 46.4392 14.1999C46.0392 14.1999 45.6392 14.1999 45.3392 14.1999H45.2392C44.8392 14.1999 44.3392 14.1999 43.9392 14.0999C43.6392 14.0999 43.4392 13.9999 43.1392 13.9999C41.8392 13.7999 40.5392 13.3999 39.2392 12.7999C37.7392 12.0999 36.3392 11.2999 35.0392 10.1999C34.6392 9.89988 34.2392 9.49988 33.9392 9.19988C33.7392 8.99988 33.5392 8.79988 33.3392 8.69988C33.2392 8.69988 33.2392 8.59988 33.1392 8.49988C32.6392 8.09988 32.1392 7.69988 31.5392 7.39988C31.2392 7.29988 31.0392 7.09988 30.7392 6.99988C30.2392 6.89988 29.6392 6.89988 29.1392 6.79988C28.1392 6.69988 27.1392 6.49988 26.2392 6.19988C25.2392 5.79988 24.3392 5.19988 23.3392 4.69988C21.1392 3.39988 18.6392 2.79988 16.0392 3.09988C15.1392 3.19988 14.1392 3.39988 13.1392 3.69988C11.9392 3.99988 10.9392 4.59988 9.93923 5.29988C9.03923 5.89988 8.23923 6.59988 7.43923 7.29988C7.03923 7.69988 6.63923 8.09988 6.33923 8.49988C6.13923 8.69988 5.93923 8.99988 5.73923 9.19988C5.33923 9.69988 4.93923 10.2999 4.53923 10.7999C3.63923 12.1999 2.83923 13.6999 2.13923 15.2999C1.23923 17.5999 0.53923 20.0999 0.23923 22.4999C0.0392303 24.3999 -0.0607695 26.2999 0.0392305 28.1999C0.139231 29.0999 0.239231 29.9999 0.339231 30.7999C0.639231 32.6999 1.23923 34.6999 1.93923 36.4999C2.93923 38.8999 4.23923 41.0999 5.73923 43.0999C6.23923 43.7999 6.83923 44.3999 7.33923 44.9999C7.73923 45.3999 8.03923 45.7999 8.43923 46.0999C9.13923 46.7999 9.93923 47.4999 10.7392 48.0999C12.3392 49.2999 14.1392 50.3999 16.1392 50.8999C16.8392 50.9999 17.4392 51.0999 18.1392 51.0999C19.8392 50.9999 21.6392 50.7999 23.3392 51.0999C25.2392 51.3999 27.1392 52.0999 29.1392 52.0999C30.7392 52.0999 32.3392 51.6999 33.8392 51.0999C34.5392 50.7999 35.2392 50.4999 35.9392 50.0999C37.6392 49.0999 39.1392 47.7999 40.5392 46.4999C40.9392 46.0999 41.4392 45.5999 41.8392 45.0999C42.3392 44.4999 42.8392 43.8999 43.3392 43.1999C44.7392 41.2999 46.0392 39.1999 47.0392 36.9999C47.8392 35.2999 48.4392 33.4999 48.8392 31.6999C49.0392 30.8999 49.2392 30.0999 49.3392 29.1999C49.6392 27.3999 49.8392 25.5999 49.8392 23.7999C49.8392 21.4999 49.5392 19.0999 48.7392 16.8999C48.3392 16.0999 47.8392 15.0999 47.1392 14.0999Z" fill="#D40F14"/>
<path d="M35.1391 27.7H26.7391H24.9391C23.9391 32.7 22.8391 37.7 21.8391 42.7H26.2391C26.8391 40 27.4391 37.2 28.0391 34.5H33.6391L35.1391 27.7Z" fill="white"/>
<path d="M37.5392 16.6001C36.2392 16.6001 23.4392 16.6001 23.1392 16.6001C21.7392 16.6001 20.4392 17.2001 19.5392 18.4001C19.4392 18.6001 19.2392 18.8001 19.1392 19.0001C18.9392 19.5001 18.7392 20.0001 18.6392 20.6001C18.6392 20.9001 14.4392 42.6001 14.4392 42.6001C15.9392 42.6001 18.2392 42.6001 19.6392 42.6001C19.6392 42.6001 22.7392 26.8001 22.8392 26.4001C23.0392 25.7001 23.1392 25.3001 23.7392 25.3001H35.7392L37.5392 16.6001Z" fill="white"/>
<path d="M28.2391 5.7C29.0391 3 30.6391 1.1 30.6391 1.1L28.3391 0C27.3391 1.9 26.7391 3.9 26.3391 5.2C27.1391 5.6 27.9391 5.7 28.2391 5.7Z" fill="#623C2C"/>
</g>
<defs>
<clipPath id="clip0_4_18">
<rect width="54.0392" height="52.1" fill="white"/>
</clipPath>
</defs>
</svg>
