<?xml version="1.0"?>
<svg width="114" height="82" viewBox="0 0 114 82" fill="none" xmlns="http://www.w3.org/2000/svg">
<path d="M85.4678 67.9999H97.0505C97.0505 57.9446 96.8644 47.9541 96.751 37.8987L102.781 37.2982L103.785 34.8553H96.5405C94.3875 30.416 92.8496 26.1634 93.5538 22.0812C94.1528 18.6645 96.751 17.228 99.9886 17.1955L103.129 23.8829C105.533 23.8829 108.164 22.487 108.844 20.0928C109.523 17.7149 107.905 15.0043 105.582 14.3307C103.34 13.6814 99.9886 14.0142 97.4309 15.1017C92.0078 17.4228 86.9733 23.3797 85.5083 34.7742H79.4377C79.1706 32.4531 77.6247 30.4972 75.0669 30.4972C68.4459 30.4972 63.4519 39.108 60.0605 44.6672L66.1067 30.343L47.0937 33.1916L45.912 35.3585L52.8972 35.6588L41.873 62.3514L25.6929 45.9901C25.6929 45.9901 33.8842 39.2135 35.4625 37.8987C37.0409 36.5921 39.0239 35.4478 41.3874 35.253C41.3874 35.253 42.213 33.2646 42.3344 32.9725L31.3831 33.2646L30.5737 35.2286C32.1844 35.3423 33.0262 35.399 33.0262 35.9753C33.0262 36.9573 32.3058 37.29 19.1448 47.8648V14.4037L6 16.4164L7.61882 19.8575V67.9999H19.1448V49.9343L37.0651 67.9107L37.1542 68H51.9502C57.7699 54.3737 62.683 41.2912 70.9309 34.8554L73.9581 41.2912C76.3782 41.1694 78.426 39.7735 79.1221 37.6147H85.4679L85.4678 67.9999Z" fill="#0F1411"/>
</svg>
