<?xml version="1.0"?>
<svg
   width="85.058594pt"
   height="61.33984pt"
   viewBox="0 0 85.058594 61.33984"
   xmlns="http://www.w3.org/2000/svg">
  <path
     style="fill:#fdee33;fill-rule:nonzero;stroke:none"
     d="M 85.05859,0 H 0 v 61.33984 h 85.05859 z m 0,0"
     id="path716" />
  <path
     style="fill:#0f1411;fill-rule:nonzero;stroke:none"
     d="m 56.02734,43.66406 h 5.58985 c 0,-4.83984 -0.0898,-9.64844 -0.14453,-14.48828 l 2.91015,-0.28906 0.48438,-1.17578 h -3.4961 c -1.03906,-2.13672 -1.78125,-4.1836 -1.4414,-6.14844 0.28906,-1.64453 1.54297,-2.33594 3.10547,-2.35156 l 1.51562,3.21875 c 1.16016,0 2.42969,-0.67188 2.75781,-1.82422 0.32813,-1.14453 -0.45312,-2.44922 -1.57421,-2.77344 -1.08204,-0.3125 -2.69922,-0.15234 -3.9336,0.37109 -2.61719,1.11719 -5.04687,3.98438 -5.7539,9.46875 h -2.92969 c -0.12891,-1.11718 -0.875,-2.05859 -2.10938,-2.05859 -3.19531,0 -5.60547,4.14453 -7.24218,6.82031 l 2.91796,-6.89453 -9.17578,1.37109 -0.57031,1.04297 3.37109,0.14453 -5.32031,12.84766 -7.80859,-7.875 c 0,0 3.95312,-3.26172 4.71484,-3.89453 0.76172,-0.62891 1.71875,-1.17969 2.85938,-1.27344 0,0 0.39843,-0.95703 0.45703,-1.09765 l -5.28516,0.14062 -0.39062,0.94531 c 0.77734,0.0547 1.18359,0.082 1.18359,0.35938 0,0.47265 -0.34766,0.63281 -6.69922,5.72265 V 17.86719 l -6.34375,0.96875 0.78125,1.65625 v 23.17187 h 5.5625 v -8.69531 l 8.64844,8.65234 0.043,0.043 h 7.14062 c 2.8086,-6.55859 5.17969,-12.85547 9.16016,-15.95312 l 1.46094,3.09765 c 1.16797,-0.0586 2.15625,-0.73047 2.49218,-1.76953 h 3.0625 z m 0,0"
     id="path718" />
</svg>