<?xml version="1.0" encoding="UTF-8"?>
<svg id="Layer_1" data-name="Layer 1" xmlns="http://www.w3.org/2000/svg" viewBox="0 0 600 600">
  <defs>
    <style>
      .cls-1 {
        fill: #337102;
      }
    </style>
  </defs>
  <path class="cls-1" d="M470.06,265.02c-20.67,0-32.83,16.23-32.83,36.43,0,18.08,12.15,36.2,32.62,36.2s33.98-17.13,33.98-36.2-13.04-36.43-33.77-36.43Z"/>
  <path class="cls-1" d="M118.52,0C53.06,0,0,53.06,0,118.52v481.48h481.48c65.46,0,118.52-53.06,118.52-118.52V0H118.52ZM247.46,357.9h-28.53v-63.28c0-13.57-3.1-30.44-21.44-30.44s-25.17,16.68-25.17,31.42v62.3h-28.6v-69c0-14.03-6.65-24.72-21.15-24.72-17.12,0-24.98,15.68-24.98,30.92v62.8h-28.57v-114.24h15.13c6.59,0,11.97,5.42,11.97,12.04v6.3h.48c4.98-11.15,17.14-21.64,35.45-21.64s29.28,8.83,35.71,21.64c7.62-13.77,20.44-21.64,37.61-21.64,29.69,0,42.09,22.86,42.09,46.17v71.36ZM388.1,357.89h-27.13v-17.13h-.52c-7.81,13.06-23.29,20.42-39.19,20.42-34.78,0-56.22-27.6-56.22-60.91s22.86-59.99,55.5-59.99c20.92,0,32.35,10.45,38.31,17.86h.71v-42.76c0-12.57,10.46-22.73,23.04-22.73h5.51v165.24ZM530.98,349.08c0,41.11-19.99,67.29-64.47,67.29-18.58,0-41.88-6.63-56.6-18.82l16.38-22.05c10.94,10.47,25.68,16.15,39.95,16.15,27.6,0,36.21-16.62,36.21-39.23v-8.32h-.51c-8.31,11.13-21.62,17.08-37.34,17.08-34.23,0-56.37-27.16-56.37-59.51s21.42-59.97,55.89-59.97c15.95,0,30.95,6.63,39.29,20.5h.43v-5.19c0-6.58,5.43-11.99,12.02-11.99h15.14v104.05Z"/>
  <path class="cls-1" d="M326.96,263.61c-22.16,0-32.89,18.79-32.89,36.67s10.73,37.15,32.89,37.15c20.93,0,33.49-18.81,33.49-36.66s-12.56-37.16-33.49-37.16Z"/>
</svg>