<?xml version="1.0" encoding="UTF-8"?>
<svg width="600" height="600" viewBox="0 0 600 600" fill="none" xmlns="http://www.w3.org/2000/svg">
<g clip-path="url(#clip0_1_2)">
<path d="M470.06 265.02C449.39 265.02 437.23 281.25 437.23 301.45C437.23 319.53 449.38 337.65 469.85 337.65C490.32 337.65 503.83 320.52 503.83 301.45C503.83 282.38 490.79 265.02 470.06 265.02Z" fill="white"/>
<path d="M118.52 0C53.06 0 0 53.06 0 118.52V600H481.48C546.94 600 600 546.94 600 481.48V0H118.52ZM247.46 357.9H218.93V294.62C218.93 281.05 215.83 264.18 197.49 264.18C179.15 264.18 172.32 280.86 172.32 295.6V357.9H143.72V288.9C143.72 274.87 137.07 264.18 122.57 264.18C105.45 264.18 97.59 279.86 97.59 295.1V357.9H69.02V243.66H84.15C90.74 243.66 96.12 249.08 96.12 255.7V262H96.6C101.58 250.85 113.74 240.36 132.05 240.36C150.36 240.36 161.33 249.19 167.76 262C175.38 248.23 188.2 240.36 205.37 240.36C235.06 240.36 247.46 263.22 247.46 286.53V357.89V357.9ZM388.1 357.89H360.97V340.76H360.45C352.64 353.82 337.16 361.18 321.26 361.18C286.48 361.18 265.04 333.58 265.04 300.27C265.04 266.96 287.9 240.28 320.54 240.28C341.46 240.28 352.89 250.73 358.85 258.14H359.56V215.38C359.56 202.81 370.02 192.65 382.6 192.65H388.11V357.89H388.1ZM530.98 349.08C530.98 390.19 510.99 416.37 466.51 416.37C447.93 416.37 424.63 409.74 409.91 397.55L426.29 375.5C437.23 385.97 451.97 391.65 466.24 391.65C493.84 391.65 502.45 375.03 502.45 352.42V344.1H501.94C493.63 355.23 480.32 361.18 464.6 361.18C430.37 361.18 408.23 334.02 408.23 301.67C408.23 269.32 429.65 241.7 464.12 241.7C480.07 241.7 495.07 248.33 503.41 262.2H503.84V257.01C503.84 250.43 509.27 245.02 515.86 245.02H531V349.07L530.98 349.08Z" fill="white"/>
<path d="M326.96 263.61C304.8 263.61 294.07 282.4 294.07 300.28C294.07 318.16 304.8 337.43 326.96 337.43C347.89 337.43 360.45 318.62 360.45 300.77C360.45 282.92 347.89 263.61 326.96 263.61Z" fill="white"/>
</g>
<defs>
<clipPath id="clip0_1_2">
<rect width="600" height="600" fill="white"/>
</clipPath>
</defs>
</svg>
