<?xml version="1.0" encoding="UTF-8" standalone="no"?>
<!-- Created with Inkscape (http://www.inkscape.org/) -->

<svg
   version="1.1"
   id="svg1"
   width="680.20001"
   height="735.54669"
   viewBox="0 0 680.20001 735.54669"
   sodipodi:docname="logo_hvit.eps"
   xmlns:inkscape="http://www.inkscape.org/namespaces/inkscape"
   xmlns:sodipodi="http://sodipodi.sourceforge.net/DTD/sodipodi-0.dtd"
   xmlns="http://www.w3.org/2000/svg"
   xmlns:svg="http://www.w3.org/2000/svg">
  <defs
     id="defs1" />
  <sodipodi:namedview
     id="namedview1"
     pagecolor="#ffffff"
     bordercolor="#000000"
     borderopacity="0.25"
     inkscape:showpageshadow="2"
     inkscape:pageopacity="0.0"
     inkscape:pagecheckerboard="0"
     inkscape:deskcolor="#d1d1d1">
    <inkscape:page
       x="0"
       y="0"
       inkscape:label="1"
       id="page1"
       width="680.20001"
       height="735.54669"
       margin="0"
       bleed="0" />
  </sodipodi:namedview>
  <g
     id="g1"
     inkscape:groupmode="layer"
     inkscape:label="1">
    <g
       id="group-R5">
      <path
         id="path2"
         d="m 4580.02,3717.29 c -218.24,391.79 -433.33,688.92 -654.64,1017.54 587.9,68.13 1117.22,-32.47 1163.67,-114.62 27.83,-48.58 -172.63,-468.32 -509.03,-902.92"
         style="fill:#ffffff;fill-opacity:1;fill-rule:nonzero;stroke:none"
         transform="matrix(0.13333333,0,0,-0.13333333,0,735.54667)" />
      <path
         id="path3"
         d="m 2079.64,2918.39 c 371.26,-169.54 781.6,-336.29 1212.19,-503.99 -437.98,-392.42 -1008.72,-769.13 -1111.31,-709.09 -74.31,43.43 -128.88,777.43 -100.88,1213.08"
         style="fill:#ffffff;fill-opacity:1;fill-rule:nonzero;stroke:none"
         transform="matrix(0.13333333,0,0,-0.13333333,0,735.54667)" />
      <path
         id="path4"
         d="m 3633.84,2491.88 c 297.66,280.53 599.96,609.26 918.43,945.94 194.23,-403.19 449.71,-1099.35 379.84,-1162.09 -96.91,-86.97 -847.56,46.05 -1298.27,216.15"
         style="fill:#ffffff;fill-opacity:1;fill-rule:nonzero;stroke:none"
         transform="matrix(0.13333333,0,0,-0.13333333,0,735.54667)" />
      <path
         id="path5"
         d="m 3647.07,4846.37 c -429.13,-65.35 -1022.06,-199.98 -1295.41,-268.2 127.26,431.02 391.26,918 482.89,937.64 84.26,17.79 470.92,-275.54 812.52,-669.44"
         style="fill:#ffffff;fill-opacity:1;fill-rule:nonzero;stroke:none"
         transform="matrix(0.13333333,0,0,-0.13333333,0,735.54667)" />
      <path
         id="path6"
         d="m 2141.7,4364.52 c -86.19,-389.5 -177.12,-889.48 -202.12,-1200.11 -456.96,257.97 -836.04,548.18 -825.71,629.23 10.83,86.19 456.27,403.22 1027.83,570.88"
         style="fill:#ffffff;fill-opacity:1;fill-rule:nonzero;stroke:none"
         transform="matrix(0.13333333,0,0,-0.13333333,0,735.54667)" />
      <path
         id="path7"
         d="m 2298.4,4412.68 c -68.97,-256.74 -209.32,-812.23 -216.21,-1322.69 395.12,-216.84 981.36,-443.84 1361.74,-537.66 366.76,291.01 845.97,785.09 1034.53,1036.21 -165.17,340.01 -456.26,849.73 -727.36,1131.71 -433.64,-42.96 -1211.5,-227.43 -1452.7,-307.57"
         style="fill:#ffffff;fill-opacity:1;fill-rule:nonzero;stroke:none"
         transform="matrix(0.13333333,0,0,-0.13333333,0,735.54667)" />
      <path
         id="path8"
         d="M 726.934,1615.35 H 380.051 V 1050.87 H 732.41 c 190.047,0 267.133,118.38 267.133,289.07 0,181.77 -90.828,275.41 -272.609,275.41 M 743.473,690.148 H 380.051 V 76.1094 H 0 V 1976.03 h 726.934 c 448.836,0 660.886,-181.72 660.886,-630.53 0,-280.85 -104.62,-435.02 -275.37,-542.449 L 1379.51,76.1094 H 963.801 L 743.473,690.148"
         style="fill:#ffffff;fill-opacity:1;fill-rule:nonzero;stroke:none"
         transform="matrix(0.13333333,0,0,-0.13333333,0,735.54667)" />
      <path
         id="path9"
         d="m 3713.42,425.789 v 699.391 c 0,0 -151.5,24.78 -269.88,24.78 -137.66,0 -223,-99.09 -223,-371.722 0,-278.078 52.23,-385.429 225.74,-391.047 107.42,2.84 267.14,38.598 267.14,38.598 M 4082.37,76.1094 H 3713.42 V 131.18 c 0,0 -190.01,-85.3714 -330.48,-85.3714 -415.7,0 -536.9,250.5824 -536.9,732.4294 0,498.402 195.51,704.952 569.98,704.952 101.86,0 297.4,-35.82 297.4,-35.82 v 556.2 h 368.95 V 76.1094"
         style="fill:#ffffff;fill-opacity:1;fill-rule:nonzero;stroke:none"
         transform="matrix(0.13333333,0,0,-0.13333333,0,735.54667)" />
      <path
         id="path10"
         d="M 4760.07,1116.99 V 596.551 c 0,-137.692 0,-201.012 115.65,-201.012 77.19,0 209.33,5.512 209.33,5.512 l 16.47,-316.6408 c 0,0 -184.47,-41.3516 -280.77,-41.3516 -333.23,0 -429.62,126.6794 -429.62,523.1914 v 550.74 h -162.48 v 333.12 h 162.48 v 385.51 h 368.94 v -385.51 h 338.64 v -333.12 h -338.64"
         style="fill:#ffffff;fill-opacity:1;fill-rule:nonzero;stroke:none"
         transform="matrix(0.13333333,0,0,-0.13333333,0,735.54667)" />
      <path
         id="path11"
         d="m 2096.26,376.219 c -58.03,0 -103.65,11.32 -139.72,32.871 l 381.06,550.18 c 12.45,-53.899 17.57,-118.75 17.57,-194.782 0,-253.289 -55.12,-388.269 -258.91,-388.269 z m -258.8,388.269 c 0,253.342 55.04,385.472 258.8,385.472 53.4,0 96.37,-9.33 131.03,-27.24 l -374.4,-543.251 c -10.81,52.152 -15.43,113.711 -15.43,185.019 z m 737.81,537.952 119.97,173.26 -158.08,96.59 -108.39,-157.26 c -87.52,43.72 -196.52,68.16 -332.51,68.16 -479.12,0 -633.3,-294.62 -633.3,-718.702 0,-220.347 42.24,-405.949 149.46,-533.929 L 1510.71,83 1673.24,0 l 80.74,116.57 c 89.08,-47.1481 201.28,-73.5114 342.28,-73.5114 479.11,0 633.31,297.3434 633.31,721.4294 0,223.614 -43.6,410.532 -154.3,537.952"
         style="fill:#ffffff;fill-opacity:1;fill-rule:nonzero;stroke:none"
         transform="matrix(0.13333333,0,0,-0.13333333,0,735.54667)" />
    </g>
  </g>
</svg>
