<?xml version="1.0" encoding="UTF-8"?>
<svg id="Layer_1" xmlns="http://www.w3.org/2000/svg" version="1.1" viewBox="0 0 149.7 53">
  <!-- Generator: Adobe Illustrator 29.0.0, SVG Export Plug-In . SVG Version: 2.1.0 Build 186)  -->
  <defs>
    <style>
      .st0 {
        fill: #00843d;
      }

      .st1 {
        fill: #78be21;
      }

      .st2 {
        fill: #00491e;
      }
    </style>
  </defs>
  <g>
    <path class="st2" d="M62.2,23.9c0,0-.2-.2-.4-.3-.2-.1-.4-.2-.6-.3s-.5-.2-.8-.3c-.3,0-.6-.1-.9-.1-.5,0-.9,0-1.2.3-.3.2-.4.5-.4.8s0,.4.1.5c0,.1.2.3.4.4.2.1.4.2.7.3.3,0,.6.2,1,.3.5.1.9.3,1.3.4.4.1.7.3,1,.6.3.2.5.5.6.8.1.3.2.7.2,1.2s-.1,1-.3,1.4c-.2.4-.5.7-.8.9s-.7.4-1.2.5-.9.2-1.4.2c-.7,0-1.5-.1-2.2-.3-.7-.2-1.4-.5-2-1l.9-1.7c0,0,.2.2.5.3.2.1.5.3.8.4.3.1.6.2,1,.3.4,0,.7.1,1.1.1,1.1,0,1.6-.3,1.6-1s0-.4-.2-.5c-.1-.1-.3-.3-.5-.4-.2-.1-.5-.2-.8-.3-.3,0-.7-.2-1.1-.3-.5-.1-.9-.3-1.2-.4s-.6-.3-.9-.5-.4-.5-.5-.7c-.1-.3-.2-.6-.2-1s0-1,.3-1.3c.2-.4.4-.7.8-1,.3-.3.7-.5,1.2-.6.4-.1.9-.2,1.4-.2s1.3.1,1.9.3c.6.2,1.1.5,1.5.8l-.9,1.6Z"/>
    <path class="st2" d="M68.1,31.4c-.6,0-1.1,0-1.6-.3-.5-.2-.9-.5-1.2-.8-.3-.3-.6-.7-.8-1.2-.2-.5-.3-.9-.3-1.4s0-1,.3-1.5c.2-.5.4-.9.8-1.2.3-.3.7-.6,1.2-.8.5-.2,1-.3,1.6-.3s1.1.1,1.6.3c.5.2.9.5,1.2.8.3.3.6.7.8,1.2s.3.9.3,1.4,0,.2,0,.4c0,.1,0,.2,0,.3h-5.7c0,.3,0,.5.2.8s.3.4.4.6c.2.2.4.3.6.4s.5.1.7.1c.4,0,.7,0,1.1-.3s.6-.4.7-.7l1.6.4c-.3.6-.7,1-1.3,1.4-.6.4-1.3.5-2.1.5ZM70,27c0-.6-.2-1-.6-1.3-.4-.3-.8-.5-1.3-.5s-.5,0-.7.1c-.2,0-.4.2-.6.4-.2.2-.3.3-.4.6-.1.2-.2.5-.2.7h3.8Z"/>
    <path class="st2" d="M79.9,31.3h-1.9v-4.1c0-.6-.1-1-.3-1.3-.2-.3-.5-.4-.9-.4s-.4,0-.6.1c-.2,0-.4.2-.6.3-.2.1-.3.3-.5.5-.1.2-.2.4-.3.6v4.3h-1.9v-7.3h1.7v1.4c.3-.5.7-.8,1.2-1.1.5-.3,1.1-.4,1.7-.4s.8,0,1.1.3.5.4.7.7c.2.3.3.6.3.9s0,.7,0,1v4.6Z"/>
    <path class="st2" d="M85.8,30.9c-.3.1-.6.2-.9.3s-.7.2-1.1.2-.5,0-.7,0c-.2,0-.4-.2-.6-.3s-.3-.3-.4-.6-.2-.5-.2-.8v-4.2h-1v-1.4h1v-2.4h1.9v2.4h1.5v1.4h-1.5v3.6c0,.3,0,.4.2.6.1.1.3.2.5.2s.4,0,.6,0c.2,0,.3-.1.4-.2l.4,1.5Z"/>
    <path class="st2" d="M90,31.4c-.6,0-1.1,0-1.6-.3-.5-.2-.9-.5-1.2-.8-.3-.3-.6-.7-.8-1.2-.2-.5-.3-.9-.3-1.4s0-1,.3-1.5c.2-.5.4-.9.8-1.2.3-.3.7-.6,1.2-.8.5-.2,1-.3,1.6-.3s1.1.1,1.6.3c.5.2.9.5,1.2.8.3.3.6.7.8,1.2s.3.9.3,1.4,0,.2,0,.4c0,.1,0,.2,0,.3h-5.7c0,.3,0,.5.2.8s.3.4.4.6c.2.2.4.3.6.4s.5.1.7.1c.4,0,.7,0,1.1-.3s.6-.4.7-.7l1.6.4c-.3.6-.7,1-1.3,1.4-.6.4-1.3.5-2.1.5ZM91.9,27c0-.6-.2-1-.6-1.3-.4-.3-.8-.5-1.3-.5s-.5,0-.7.1c-.2,0-.4.2-.6.4-.2.2-.3.3-.4.6-.1.2-.2.5-.2.7h3.8Z"/>
    <path class="st2" d="M99.4,25.6c-.6,0-1.1.1-1.5.3-.4.2-.8.5-1,.9v4.4h-1.9v-7.3h1.7v1.6c.1-.3.3-.5.5-.7.2-.2.4-.4.6-.5.2-.1.4-.3.6-.3.2,0,.4-.1.6-.1h.2c0,0,0,0,.1,0v1.7Z"/>
    <path class="st2" d="M104.8,31.4c-.6,0-1.1-.1-1.5-.4-.4-.3-.8-.6-1-1v4.3h-1.9v-10.3h1.6v1.3c.3-.4.6-.8,1-1,.4-.2.9-.4,1.5-.4s1,.1,1.4.3c.4.2.8.5,1.1.8.3.3.5.7.7,1.2.2.5.3.9.3,1.5s0,1-.2,1.5c-.2.5-.4.9-.7,1.2-.3.3-.6.6-1,.8-.4.2-.8.3-1.3.3ZM104.2,29.8c.3,0,.5,0,.8-.2.2-.1.4-.3.6-.5s.3-.4.4-.7c0-.3.1-.6.1-.8s0-.6-.2-.9-.2-.5-.4-.7c-.2-.2-.4-.3-.6-.5-.2-.1-.5-.2-.8-.2s-.4,0-.5,0c-.2,0-.4.1-.5.3-.2.1-.3.2-.4.4s-.2.3-.3.5v1.7c.2.4.4.8.8,1,.3.3.7.4,1.1.4Z"/>
    <path class="st2" d="M111.3,31.4c-.4,0-.7,0-1-.2-.3-.1-.6-.3-.8-.5-.2-.2-.4-.5-.5-.7-.1-.3-.2-.6-.2-.9s0-.7.2-1,.4-.5.6-.7c.3-.2.6-.4,1-.5.4-.1.8-.2,1.3-.2s.6,0,1,0c.3,0,.6.1.8.2v-.4c0-.5-.1-.9-.4-1.1-.3-.3-.7-.4-1.2-.4s-.8,0-1.1.2c-.4.1-.8.3-1.1.6l-.6-1.2c.9-.6,2-.9,3.1-.9s1.9.3,2.5.8c.6.5.9,1.3.9,2.2v2.3c0,.2,0,.3.1.4s.2.1.3.1v1.6c-.3,0-.6,0-.8,0-.4,0-.6,0-.8-.2-.2-.2-.3-.4-.4-.6v-.4c-.4.4-.8.8-1.2,1-.5.2-1,.3-1.5.3ZM111.8,30c.3,0,.6,0,.9-.2.3-.1.5-.3.7-.4.2-.2.3-.3.3-.5v-.8c-.2,0-.5-.2-.7-.2-.3,0-.5,0-.8,0-.5,0-.9.1-1.2.3-.3.2-.5.5-.5.8s.1.6.4.8c.2.2.5.3.9.3Z"/>
    <path class="st2" d="M121.7,25.6c-.6,0-1.1.1-1.5.3-.4.2-.8.5-1,.9v4.4h-1.9v-7.3h1.7v1.6c.1-.3.3-.5.5-.7.2-.2.4-.4.6-.5.2-.1.4-.3.6-.3.2,0,.4-.1.6-.1h.2c0,0,0,0,.1,0v1.7Z"/>
    <path class="st2" d="M127.2,30.9c-.3.1-.6.2-.9.3s-.7.2-1.1.2-.5,0-.7,0c-.2,0-.4-.2-.6-.3s-.3-.3-.4-.6-.2-.5-.2-.8v-4.2h-1v-1.4h1v-2.4h1.9v2.4h1.5v1.4h-1.5v3.6c0,.3,0,.4.2.6.1.1.3.2.5.2s.4,0,.6,0c.2,0,.3-.1.4-.2l.4,1.5Z"/>
    <path class="st2" d="M128.1,22.9v-1.9h1.9v1.9h-1.9ZM128.1,31.3v-7.3h1.9v7.3h-1.9Z"/>
    <path class="st2" d="M135.1,31.4c-.6,0-1.1,0-1.6-.3-.5-.2-.9-.5-1.2-.8-.3-.3-.6-.7-.8-1.2-.2-.5-.3-.9-.3-1.4s0-1,.3-1.5c.2-.5.4-.9.8-1.2.3-.3.7-.6,1.2-.8.5-.2,1-.3,1.6-.3s1.1.1,1.6.3c.5.2.9.5,1.2.8.3.3.6.7.8,1.2s.3.9.3,1.4,0,.2,0,.4c0,.1,0,.2,0,.3h-5.7c0,.3,0,.5.2.8s.3.4.4.6c.2.2.4.3.6.4s.5.1.7.1c.4,0,.7,0,1.1-.3s.6-.4.7-.7l1.6.4c-.3.6-.7,1-1.3,1.4-.6.4-1.3.5-2.1.5ZM137,27c0-.6-.2-1-.6-1.3-.4-.3-.8-.5-1.3-.5s-.5,0-.7.1c-.2,0-.4.2-.6.4-.2.2-.3.3-.4.6-.1.2-.2.5-.2.7h3.8Z"/>
    <path class="st2" d="M144.4,30.9c-.3.1-.6.2-.9.3s-.7.2-1.1.2-.5,0-.7,0c-.2,0-.4-.2-.6-.3s-.3-.3-.4-.6-.2-.5-.2-.8v-4.2h-1v-1.4h1v-2.4h1.9v2.4h1.5v1.4h-1.5v3.6c0,.3,0,.4.2.6.1.1.3.2.5.2s.4,0,.6,0c.2,0,.3-.1.4-.2l.4,1.5Z"/>
  </g>
  <g>
    <path class="st0" d="M38,11.8h0c0-.1,0-.3,0-.3,0-.2,0-.4,0-.6,0-.4-.2-.8-.3-1.2-.1-.4-.3-.8-.5-1.2-.4-.8-.9-1.5-1.6-2-.7-.6-1.4-1-2.3-1.3-.8-.3-1.7-.4-2.6-.4-.9,0-1.7.2-2.5.6-.8.4-1.5.9-2.1,1.5,0,0,0,0-.1.1-.7-.7-1.6-1.2-2.5-1.5-.4-.1-.9-.2-1.3-.3s-.9,0-1.3,0c-.5,0-.9.1-1.3.3-.4.1-.8.3-1.2.5-.8.4-1.4,1-1.9,1.7-.5.7-.9,1.4-1.1,2.2-.2.8-.2,1.6-.1,2.3,0,.4.1.8.3,1.1.1.4.3.7.5,1,0-.4,0-.7-.1-1.1s0-.7,0-1c.1-.7.3-1.3.6-1.9.6-1.2,1.6-2,2.7-2.4.5-.2,1.1-.3,1.7-.2.3,0,.6,0,.8.1.3,0,.5.2.8.3.5.2.9.6,1.3.9.4.4.7.9.9,1.3.3.5,1.2,2.1,1.2,2.1,0,0,1-1.5,1.3-2,.6-.8,1.4-1.5,2.2-1.9.4-.2.9-.3,1.4-.3.5,0,.9,0,1.4.2.4.1.8.4,1.2.7.4.3.7.7.9,1.1.1.2.2.4.3.7,0,.2.2.5.2.7,0,.1,0,.2,0,.4h0c0,0,0,.2,0,.2h0s0,0,0,0h0s0,0,0,0h0c0,.4,0,.6,0,.9,0,.5-.2,1-.4,1.5-.2.5-.5,1-.8,1.5-.3.5-.7,1-1.1,1.5-.4.5-.8,1-1.3,1.5-.9,1-1.9,1.9-2.8,2.9-.2.2-.5.5-.7.8-.2.3-.5.5-.7.8-.2.3-.4.5-.6.8-.2.3-.4.6-.5.9.2-.2.5-.5.8-.7.3-.2.5-.4.8-.6.6-.4,1.1-.7,1.7-1.1,1.1-.7,2.3-1.5,3.4-2.3.6-.4,1.1-.8,1.6-1.3.5-.5,1-1,1.5-1.6.5-.6.9-1.2,1.3-1.9.4-.7.7-1.5.8-2.3,0-.4.1-.8.1-1.3v-.3Z"/>
    <path class="st0" d="M37.7,40.8c0-.4-.1-.8-.3-1.1-.1-.4-.3-.7-.5-1,0,.4,0,.7.1,1.1,0,.4,0,.7,0,1,0,.7-.3,1.3-.6,1.9-.6,1.2-1.6,2-2.7,2.4-.5.2-1.1.3-1.7.2-.3,0-.6,0-.8-.1-.3,0-.5-.2-.8-.3-.5-.2-.9-.6-1.3-.9-.4-.4-.7-.9-.9-1.3-.3-.5-1.2-2.1-1.2-2.1,0,0-1,1.5-1.3,2-.6.8-1.4,1.5-2.2,1.9-.4.2-.9.3-1.4.3-.5,0-.9,0-1.4-.2-.4-.1-.8-.4-1.2-.7-.4-.3-.7-.7-.9-1.1-.1-.2-.2-.4-.3-.7,0-.2-.2-.5-.2-.7,0-.1,0-.2,0-.4h0c0,0,0-.2,0-.2h0s0,0,0,0h0s0,0,0,0h0c0-.3,0-.6,0-.8,0-.5.2-1,.4-1.5.2-.5.5-1,.8-1.5.3-.5.7-1,1.1-1.5.4-.5.8-1,1.3-1.4.9-1,1.9-1.9,2.8-2.9.2-.2.5-.5.7-.7.2-.3.5-.5.7-.8.2-.3.4-.5.6-.8.2-.3.4-.6.5-.9-.2.2-.5.5-.8.7-.3.2-.5.4-.8.6-.5.4-1.1.7-1.7,1.1-1.1.7-2.3,1.5-3.4,2.3-.6.4-1.1.8-1.6,1.3-.5.5-1,1-1.5,1.6-.5.6-.9,1.2-1.3,1.9-.4.7-.7,1.5-.8,2.3,0,.4-.1.8-.1,1.3v.3s0,.1,0,.1v.2c0,.2,0,.4,0,.6,0,.4.2.8.3,1.2.1.4.3.8.5,1.2.4.8.9,1.5,1.6,2,.7.6,1.4,1,2.3,1.3.8.3,1.7.4,2.6.4.9,0,1.7-.2,2.5-.6.8-.4,1.5-.9,2.1-1.5,0,0,0,0,.1-.1.7.7,1.6,1.2,2.5,1.5.4.1.9.2,1.3.3.4,0,.9,0,1.3,0,.5,0,.9-.1,1.3-.3.4-.1.8-.3,1.2-.5.8-.4,1.4-1,1.9-1.7.5-.7.9-1.4,1-2.2.2-.8.2-1.6.1-2.3"/>
    <path class="st0" d="M24.3,26.2c-.2-.3-.4-.5-.6-.8-.4-.5-.7-1.1-1.1-1.7-.7-1.1-1.5-2.3-2.3-3.4-.4-.5-.9-1.1-1.3-1.6-.5-.5-1-1-1.5-1.5-.6-.5-1.2-.9-1.9-1.3-.7-.4-1.5-.7-2.3-.8-.4,0-.8-.1-1.3-.1h-.3s-.1,0-.1,0h-.2c-.2,0-.4,0-.6,0-.4,0-.8.2-1.2.3-.4.1-.8.3-1.2.5-.8.4-1.5.9-2,1.6-.6.7-1,1.4-1.3,2.3-.3.8-.4,1.7-.4,2.6,0,.9.2,1.7.6,2.5.4.8.9,1.5,1.5,2.1,0,0,0,0,.1.1-.7.7-1.2,1.6-1.5,2.5-.1.4-.2.9-.3,1.3,0,.4,0,.9,0,1.3,0,.5.1.9.3,1.3.1.4.3.8.5,1.2.4.8,1,1.4,1.7,1.9.7.5,1.4.9,2.2,1.1.8.2,1.6.2,2.3.1.4,0,.8-.1,1.1-.3.4-.1.7-.3,1-.5-.4,0-.7,0-1.1.1-.4,0-.7,0-1,0-.7-.1-1.3-.3-1.9-.6-1.2-.6-2-1.6-2.4-2.7-.2-.5-.3-1.1-.2-1.7,0-.3,0-.6.1-.8,0-.3.2-.5.3-.8.2-.5.6-.9.9-1.3.4-.4.9-.7,1.3-.9.5-.3,2.1-1.2,2.1-1.2,0,0-1.5-1-2-1.3-.8-.6-1.5-1.4-1.9-2.2-.2-.4-.3-.9-.3-1.4,0-.5,0-.9.2-1.4.1-.4.4-.8.7-1.2.3-.4.7-.7,1.1-.9.2-.1.4-.2.7-.3.2,0,.5-.2.7-.2.1,0,.2,0,.4,0h0s.1,0,.1,0h0s0,0,0,0h0s0,0,0,0h0c.3,0,.5,0,.8,0,.5,0,1,.2,1.5.4.5.2,1,.5,1.5.8.5.3,1,.7,1.5,1.1.5.4,1,.8,1.4,1.3,1,.9,1.9,1.9,2.9,2.8.2.2.5.5.8.7.3.2.5.5.8.7.3.2.5.4.8.6.3.2.6.4.9.5-.2-.2-.5-.5-.7-.8"/>
    <path class="st1" d="M48.1,30.8c0-.9-.2-1.7-.6-2.5-.4-.8-.9-1.5-1.5-2.1,0,0,0,0-.1-.1.7-.7,1.2-1.6,1.5-2.5.1-.4.2-.9.3-1.3,0-.4,0-.9,0-1.3,0-.5-.1-.9-.3-1.3-.1-.4-.3-.8-.5-1.2-.4-.8-1-1.4-1.7-1.9-.7-.5-1.4-.9-2.2-1.1-.8-.2-1.6-.2-2.3-.1-.4,0-.8.1-1.1.3-.4.1-.7.3-1,.5.4,0,.7,0,1.1-.1s.7,0,1,0c.7.1,1.3.3,1.9.6,1.2.6,2,1.6,2.4,2.7.2.5.3,1.1.2,1.7,0,.3,0,.6-.1.8,0,.3-.1.5-.3.8-.2.5-.6.9-.9,1.3-.4.4-.9.7-1.3.9-.5.3-2.1,1.2-2.1,1.2,0,0,1.5,1,2,1.3.8.6,1.5,1.4,1.9,2.2.2.4.3.9.3,1.4,0,.5,0,.9-.2,1.4-.1.4-.4.8-.7,1.2-.3.4-.7.7-1.1.9-.2.1-.4.2-.7.3-.2,0-.5.2-.7.2-.1,0-.3,0-.4,0h0s-.1,0-.1,0h0s0,0,0,0h0s0,0,0,0h0s0,0,0,0c-.2,0-.5,0-.8,0-.5,0-1-.2-1.5-.4-.5-.2-1-.5-1.5-.8-.5-.3-1-.7-1.5-1.1-.5-.4-1-.8-1.5-1.3-1-.9-1.9-1.9-2.9-2.8-.2-.2-.5-.5-.7-.7-.3-.2-.5-.5-.8-.7-.3-.2-.5-.4-.8-.6-.3-.2-.6-.4-.9-.5.2.2.5.5.7.8.2.3.4.5.6.8.4.5.7,1.1,1.1,1.7.7,1.1,1.5,2.3,2.3,3.4.4.6.9,1.1,1.3,1.6.5.5,1,1,1.6,1.5.6.5,1.2.9,1.9,1.3.7.4,1.5.7,2.3.8.4,0,.8.1,1.3.1h.3s.1,0,.1,0h.2c.2,0,.4,0,.6,0,.4,0,.8-.2,1.2-.3.4-.1.8-.3,1.2-.5.7-.4,1.4-.9,2-1.6.6-.7,1-1.4,1.3-2.3.3-.8.4-1.7.4-2.6"/>
  </g>
</svg>