<?xml version="1.0" standalone="no"?>
<!DOCTYPE svg PUBLIC "-//W3C//DTD SVG 1.1//EN" "http://www.w3.org/Graphics/SVG/1.1/DTD/svg11.dtd">
<svg xmlns="http://www.w3.org/2000/svg" xmlns:xlink="http://www.w3.org/1999/xlink" id="Layer_2" viewBox="0 0 93.29 93" width="93.29000091552734" height="93"><defs><style>.cls-1{fill:none;}.cls-2{clip-path:url(#clippath);}.cls-3{fill:#fff;}.cls-4{clip-path:url(#clippath-1);}</style><clipPath id="clippath"><rect class="cls-1" width="93.29" height="93"/></clipPath><clipPath id="clippath-1"><rect class="cls-1" width="93.29" height="93"/></clipPath></defs><g id="Layer_1-2"><g id="Artwork_32"><g class="cls-2"><g class="cls-4"><path class="cls-3" d="m46.79,93c25.68,0,46.5-20.82,46.5-46.5S72.47,0,46.79,0C29.61,0,14.66,9.26,6.61,23.12c0,.02-.12,0,.28,0,.4,0,13.26,0,13.26,0l17.06,42.83,17.06-42.87,19.95.09-19.95,47.24-9.21,21.79-.28.72s1.45.08,2,.08"/><path class="cls-3" d="m3.33,30.08l25.02,59.21s-17.08-5.59-25.11-25.7c-7.35-18.39.09-33.51.09-33.51"/></g></g></g></g></svg>